<svg xmlns="http://www.w3.org/2000/svg" width="40" height="40" viewBox="0 0 40 40" fill="none">
  <path d="M19.9943 1.96833e-05C24.6217 -0.00130303 29.1063 1.60199 32.684 4.53668C36.2618 7.47137 38.7112 11.5559 39.6149 16.0941C40.5186 20.6324 39.8206 25.3436 37.64 29.425C35.4593 33.5063 31.9309 36.7052 27.656 38.4766C23.3811 40.248 18.6243 40.4822 14.196 39.1393C9.7678 37.7965 5.94222 34.9596 3.37119 31.1122C0.800173 27.2649 -0.357195 22.645 0.0963145 18.0399C0.549824 13.4348 2.58615 9.12944 5.85828 5.85748C7.71208 3.99751 9.91537 2.52245 12.3414 1.5172C14.7674 0.511944 17.3682 -0.00367193 19.9943 1.96833e-05ZM19.8674 24.1393L16.9549 32.1868C16.8833 32.3884 16.7722 32.5738 16.628 32.7319C16.4838 32.8901 16.3095 33.0178 16.1153 33.1077C15.8236 33.2445 15.4979 33.2916 15.1794 33.243C14.8609 33.1945 14.564 33.0524 14.3263 32.8349C14.0886 32.6175 13.9208 32.3343 13.8442 32.0214C13.7676 31.7084 13.7856 31.3798 13.896 31.0771L15.9266 25.454C16.0877 25.0308 16.2151 24.5956 16.3073 24.1523C16.3894 23.7022 16.4481 23.2482 16.4831 22.7921C16.5612 21.9688 16.6165 21.0771 16.6588 20.2213C16.7011 19.3654 16.7304 18.5356 16.7532 17.849C16.7824 16.9932 16.5514 16.9379 15.8648 16.7751L15.7216 16.7426L9.86413 15.6395C9.65347 15.6023 9.4522 15.524 9.27184 15.4089C9.09148 15.2939 8.93558 15.1444 8.81304 14.9691C8.63101 14.7035 8.5319 14.3898 8.52825 14.0678C8.5246 13.7458 8.61658 13.4299 8.79254 13.1603C8.9685 12.8906 9.22053 12.6792 9.51672 12.5528C9.81291 12.4264 10.1399 12.3908 10.4564 12.4504L16.7499 13.6316C17.0005 13.6544 17.2445 13.6837 17.5016 13.713C18.2761 13.8191 19.0564 13.8767 19.8381 13.8855C20.8111 13.8665 21.7823 13.7937 22.7473 13.6674C23.0402 13.6349 23.3168 13.5991 23.5934 13.5731L29.5322 12.4601C29.9535 12.3728 30.3923 12.4559 30.7525 12.6912C30.931 12.812 31.0838 12.9671 31.2019 13.1474C31.3199 13.3277 31.401 13.5297 31.4404 13.7417C31.4797 13.9536 31.4766 14.1713 31.4311 14.382C31.3857 14.5927 31.2988 14.7923 31.1755 14.9691C31.0547 15.1456 30.9002 15.2964 30.7209 15.4132C30.5417 15.5299 30.3412 15.6101 30.1309 15.6492L24.4557 16.7166C24.267 16.7589 24.0978 16.7882 23.9481 16.8109C23.3558 16.9118 23.0629 16.9639 23.0987 17.8067C23.1248 18.4217 23.1996 19.1572 23.2972 19.9252C23.4111 20.8266 23.5608 21.7833 23.717 22.6586C23.8179 23.2346 23.9123 23.6967 24.0424 24.1393C24.1726 24.5818 24.2995 25.0342 24.4948 25.5776L26.483 31.0771C26.5934 31.3798 26.6114 31.7084 26.5348 32.0214C26.4582 32.3343 26.2905 32.6175 26.0528 32.8349C25.8151 33.0524 25.5182 33.1945 25.1997 33.243C24.8812 33.2916 24.5554 33.2445 24.2637 33.1077C24.0695 33.0178 23.8952 32.8901 23.7511 32.7319C23.6069 32.5738 23.4958 32.3884 23.4242 32.1868L20.5019 24.1556L20.1765 23.56L19.8511 24.1393H19.8674ZM19.9943 6.72309C20.6591 6.72252 21.3035 6.9525 21.8178 7.37383C22.332 7.79516 22.6843 8.38177 22.8145 9.0337C22.9447 9.68564 22.8448 10.3626 22.5319 10.9491C22.2189 11.5356 21.7123 11.9955 21.0983 12.2504C20.4842 12.5052 19.8008 12.5393 19.1645 12.3468C18.5282 12.1542 17.9783 11.747 17.6086 11.1945C17.2389 10.6419 17.0722 9.97831 17.137 9.31666C17.2017 8.65501 17.4939 8.03629 17.9637 7.56591C18.2298 7.29844 18.5463 7.08627 18.8948 6.94162C19.2433 6.79697 19.617 6.7227 19.9943 6.72309ZM31.8231 8.16467C29.09 5.4224 25.4904 3.71279 21.638 3.3272C17.7855 2.94161 13.9186 3.9039 10.6961 6.05008C7.4737 8.19626 5.09524 11.3935 3.9661 15.0969C2.83696 18.8003 3.02703 22.7807 4.5039 26.3596C5.98078 29.9386 8.65306 32.8946 12.0653 34.724C15.4776 36.5534 19.4186 37.1428 23.2168 36.3919C27.015 35.641 30.4353 33.5962 32.8947 30.606C35.3541 27.6158 36.7005 23.8652 36.7043 19.9935C36.7092 17.7976 36.2805 15.6224 35.4428 13.5925C34.6052 11.5627 33.3751 9.71811 31.8231 8.16467Z" fill="#903332"/>
</svg>