<svg xmlns="http://www.w3.org/2000/svg" width="42" height="42" viewBox="0 0 42 42" fill="none">
  <path d="M19.4269 20.8333L25.8332 14.4271L22.9165 11.4583L13.5415 20.8333L22.9165 30.2083L25.8332 27.2396L19.4269 20.8333ZM20.8332 -1.34375e-05C23.7151 -1.36894e-05 26.4234 0.546865 28.9582 1.64061C31.4929 2.73436 33.6978 4.21874 35.5728 6.09374C37.4478 7.96874 38.9321 10.1736 40.0259 12.7083C41.1196 15.243 41.6665 17.9514 41.6665 20.8333C41.6665 23.7153 41.1196 26.4236 40.0259 28.9583C38.9321 31.493 37.4478 33.6979 35.5728 35.5729C33.6978 37.4479 31.4929 38.9323 28.9582 40.026C26.4234 41.1198 23.7151 41.6667 20.8332 41.6667C17.9512 41.6667 15.2429 41.1198 12.7082 40.026C10.1734 38.9323 7.96858 37.4479 6.09358 35.5729C4.21858 33.6979 2.73421 31.493 1.64046 28.9583C0.54671 26.4236 -0.000169416 23.7153 -0.000169668 20.8333C-0.00016992 17.9514 0.546709 15.243 1.64046 12.7083C2.73421 10.1736 4.21858 7.96874 6.09358 6.09374C7.96858 4.21874 10.1734 2.73437 12.7082 1.64062C15.2429 0.546866 17.9512 -1.31855e-05 20.8332 -1.34375e-05Z" fill="white" fill-opacity="0.8"/>
</svg>