<svg xmlns="http://www.w3.org/2000/svg" width="23" height="20" viewBox="0 0 23 20" fill="none">
  <path d="M22.03 10.4729C22.265 10.2479 22.4 9.93286 22.4 9.60286C22.4 9.27286 22.265 8.96286 22.03 8.73286L13.23 0.332859C12.75 -0.127141 11.99 -0.107141 11.535 0.372859C11.08 0.852859 11.095 1.61286 11.575 2.06786L18.205 8.40286H1.2C0.535 8.40286 0 8.93786 0 9.60286C0 10.2679 0.535 10.8029 1.2 10.8029H18.205L11.57 17.1329C11.09 17.5929 11.075 18.3479 11.53 18.8279C11.985 19.3079 12.745 19.3229 13.225 18.8679L22.025 10.4679L22.03 10.4729Z" fill="#0077D9"/>
</svg>