<svg xmlns="http://www.w3.org/2000/svg" width="20" height="20" viewBox="0 0 20 20" fill="none">
  <path d="M10 18C12.1217 18 14.1566 17.1571 15.6569 15.6569C17.1571 14.1566 18 12.1217 18 10C18 7.87827 17.1571 5.84344 15.6569 4.34315C14.1566 2.84285 12.1217 2 10 2C7.87827 2 5.84344 2.84285 4.34315 4.34315C2.84285 5.84344 2 7.87827 2 10C2 12.1217 2.84285 14.1566 4.34315 15.6569C5.84344 17.1571 7.87827 18 10 18ZM10.75 5.75V10C10.75 10.4156 10.4156 10.75 10 10.75H6.75C6.33437 10.75 6 10.4156 6 10C6 9.58437 6.33437 9.25 6.75 9.25H9.25V5.75C9.25 5.33437 9.58437 5 10 5C10.4156 5 10.75 5.33437 10.75 5.75Z" fill="white"/>
</svg>