<svg xmlns="http://www.w3.org/2000/svg" width="18" height="18" viewBox="0 0 18 18" fill="none">
  <path d="M16.875 5.625V2.71582C16.875 2.56805 16.8458 2.42173 16.7893 2.28522C16.7327 2.14871 16.6498 2.02469 16.5452 1.92023L14.9544 0.329414C14.7435 0.118533 14.4574 4.50573e-05 14.1592 0L5.625 0C5.32663 0 5.04048 0.118526 4.8295 0.329505C4.61853 0.540483 4.5 0.826631 4.5 1.125V16.875C4.5 17.1734 4.61853 17.4595 4.8295 17.6705C5.04048 17.8815 5.32663 18 5.625 18H16.875C17.1734 18 17.4595 17.8815 17.6705 17.6705C17.8815 17.4595 18 17.1734 18 16.875V6.75C18 6.45163 17.8815 6.16548 17.6705 5.9545C17.4595 5.74353 17.1734 5.625 16.875 5.625ZM10.125 15.1875C10.125 15.3367 10.0657 15.4798 9.96025 15.5852C9.85476 15.6907 9.71168 15.75 9.5625 15.75H8.4375C8.28832 15.75 8.14524 15.6907 8.03975 15.5852C7.93426 15.4798 7.875 15.3367 7.875 15.1875V14.0625C7.875 13.9133 7.93426 13.7702 8.03975 13.6648C8.14524 13.5593 8.28832 13.5 8.4375 13.5H9.5625C9.71168 13.5 9.85476 13.5593 9.96025 13.6648C10.0657 13.7702 10.125 13.9133 10.125 14.0625V15.1875ZM10.125 10.6875C10.125 10.8367 10.0657 10.9798 9.96025 11.0852C9.85476 11.1907 9.71168 11.25 9.5625 11.25H8.4375C8.28832 11.25 8.14524 11.1907 8.03975 11.0852C7.93426 10.9798 7.875 10.8367 7.875 10.6875V9.5625C7.875 9.41332 7.93426 9.27024 8.03975 9.16475C8.14524 9.05926 8.28832 9 8.4375 9H9.5625C9.71168 9 9.85476 9.05926 9.96025 9.16475C10.0657 9.27024 10.125 9.41332 10.125 9.5625V10.6875ZM14.625 15.1875C14.625 15.3367 14.5657 15.4798 14.4602 15.5852C14.3548 15.6907 14.2117 15.75 14.0625 15.75H12.9375C12.7883 15.75 12.6452 15.6907 12.5398 15.5852C12.4343 15.4798 12.375 15.3367 12.375 15.1875V14.0625C12.375 13.9133 12.4343 13.7702 12.5398 13.6648C12.6452 13.5593 12.7883 13.5 12.9375 13.5H14.0625C14.2117 13.5 14.3548 13.5593 14.4602 13.6648C14.5657 13.7702 14.625 13.9133 14.625 14.0625V15.1875ZM14.625 10.6875C14.625 10.8367 14.5657 10.9798 14.4602 11.0852C14.3548 11.1907 14.2117 11.25 14.0625 11.25H12.9375C12.7883 11.25 12.6452 11.1907 12.5398 11.0852C12.4343 10.9798 12.375 10.8367 12.375 10.6875V9.5625C12.375 9.41332 12.4343 9.27024 12.5398 9.16475C12.6452 9.05926 12.7883 9 12.9375 9H14.0625C14.2117 9 14.3548 9.05926 14.4602 9.16475C14.5657 9.27024 14.625 9.41332 14.625 9.5625V10.6875ZM14.625 6.75H6.75V2.25H12.375V3.9375C12.375 4.08668 12.4343 4.22976 12.5398 4.33525C12.6452 4.44074 12.7883 4.5 12.9375 4.5H14.625V6.75ZM2.25 4.5H1.125C0.826631 4.5 0.540483 4.61853 0.329505 4.8295C0.118526 5.04048 0 5.32663 0 5.625L0 16.875C0 17.1734 0.118526 17.4595 0.329505 17.6705C0.540483 17.8815 0.826631 18 1.125 18H2.25C2.54837 18 2.83452 17.8815 3.0455 17.6705C3.25647 17.4595 3.375 17.1734 3.375 16.875V5.625C3.375 5.32663 3.25647 5.04048 3.0455 4.8295C2.83452 4.61853 2.54837 4.5 2.25 4.5Z" fill="white"/>
</svg>