<svg xmlns="http://www.w3.org/2000/svg" width="20" height="20" viewBox="0 0 20 20" fill="none">
  <path d="M12.5 0C11.8086 0 11.25 0.558594 11.25 1.25C11.25 1.94141 11.8086 2.5 12.5 2.5H15.7305L7.86328 10.3672C7.375 10.8555 7.375 11.6484 7.86328 12.1367C8.35156 12.625 9.14453 12.625 9.63281 12.1367L17.5 4.26953V7.5C17.5 8.19141 18.0586 8.75 18.75 8.75C19.4414 8.75 20 8.19141 20 7.5V1.25C20 0.558594 19.4414 0 18.75 0H12.5ZM3.125 3.75C1.39844 3.75 0 5.14844 0 6.875V16.875C0 18.6016 1.39844 20 3.125 20H13.125C14.8516 20 16.25 18.6016 16.25 16.875V13.75C16.25 13.0586 15.6914 12.5 15 12.5C14.3086 12.5 13.75 13.0586 13.75 13.75V16.875C13.75 17.2188 13.4688 17.5 13.125 17.5H3.125C2.78125 17.5 2.5 17.2188 2.5 16.875V6.875C2.5 6.53125 2.78125 6.25 3.125 6.25H6.25C6.94141 6.25 7.5 5.69141 7.5 5C7.5 4.30859 6.94141 3.75 6.25 3.75H3.125Z" fill="#1B5F3A"/>
</svg>