<svg xmlns="http://www.w3.org/2000/svg" width="20" height="20" viewBox="0 0 20 20" fill="none">
  <path d="M3.99922 7.89375C3.99922 4.6375 6.68672 2 9.99922 2C13.3117 2 15.9992 4.6375 15.9992 7.89375C15.9992 11.6219 12.243 16.0906 10.6742 17.7937C10.3055 18.1938 9.68984 18.1938 9.32109 17.7937C7.75234 16.0906 3.99609 11.6219 3.99609 7.89375H3.99922ZM9.99922 10C10.5297 10 11.0384 9.78929 11.4134 9.41421C11.7885 9.03914 11.9992 8.53043 11.9992 8C11.9992 7.46957 11.7885 6.96086 11.4134 6.58579C11.0384 6.21071 10.5297 6 9.99922 6C9.46879 6 8.96008 6.21071 8.58501 6.58579C8.20993 6.96086 7.99922 7.46957 7.99922 8C7.99922 8.53043 8.20993 9.03914 8.58501 9.41421C8.96008 9.78929 9.46879 10 9.99922 10Z" fill="white"/>
</svg>