<svg xmlns="http://www.w3.org/2000/svg" width="17" height="20" viewBox="0 0 17 20" fill="none">
  <path d="M8.5 0C6.24648 0.0024241 4.08603 0.815087 2.49255 2.25973C0.899065 3.70436 0.00267385 5.66302 0 7.70604C0 14.2997 7.72727 19.2802 8.05629 19.4888C8.18641 19.5712 8.34129 19.6154 8.5 19.6154C8.65871 19.6154 8.81359 19.5712 8.94371 19.4888C9.27273 19.2802 17 14.2997 17 7.70604C16.9973 5.66302 16.1009 3.70436 14.5075 2.25973C12.914 0.815087 10.7535 0.00242386 8.5 0ZM8.50057 4.9041C9.11189 4.9041 9.70949 5.06845 10.2178 5.37636C10.7261 5.68427 11.1222 6.12191 11.3562 6.63394C11.5901 7.14598 11.6513 7.70941 11.5321 8.25298C11.4128 8.79655 11.1184 9.29586 10.6862 9.68775C10.2539 10.0796 9.70315 10.3465 9.10357 10.4547C8.50399 10.5628 7.88252 10.5073 7.31773 10.2952C6.75294 10.0831 6.2702 9.72393 5.93057 9.26312C5.59094 8.8023 5.40966 8.26052 5.40966 7.7063C5.40965 7.3383 5.48959 6.97391 5.64491 6.63393C5.80024 6.29395 6.02792 5.98503 6.31494 5.72482C6.60196 5.46461 6.9427 5.2582 7.31771 5.11738C7.69272 4.97656 8.09466 4.90409 8.50057 4.9041Z" fill="white"/>
</svg>