<svg width="374" height="76" viewBox="0 0 374 76" fill="none" xmlns="http://www.w3.org/2000/svg">
<path d="M130.47 35.8182H49.4109L89.9406 8L130.47 35.8182Z" fill="#4C6D5B"/>
<path d="M42.3622 40.1818L37.0757 44H143.246L138.4 40.1818H124.743H42.3622Z" fill="#4C6D5B"/>
<path d="M57.3406 68V52.7273L71.8784 65.8182L86.4162 52.7273V68M93.9054 50.5455V59.2727M93.9054 68V59.2727M93.9054 59.2727H125.184V50.5455V68M131.792 65.8182L151.176 51.6364L171 65.8182" stroke="#FBA93E" stroke-width="2"/>
<path d="M8.00003 66.9091L27.3838 52.1818L49.8514 65.8182" stroke="#FBA93E" stroke-width="2"/>
<path d="M188.224 30.21H182.752L181.744 33H180.016L184.552 20.526H186.442L190.96 33H189.232L188.224 30.21ZM187.756 28.878L185.488 22.542L183.22 28.878H187.756ZM198.445 33L194.575 28.644V33H192.937V19.68H194.575V27.51L198.373 23.136H200.659L196.015 28.05L200.677 33H198.445ZM203.838 24.738C204.126 24.174 204.534 23.736 205.062 23.424C205.602 23.112 206.256 22.956 207.024 22.956V24.648H206.592C204.756 24.648 203.838 25.644 203.838 27.636V33H202.2V23.136H203.838V24.738ZM213.217 33.162C212.293 33.162 211.453 32.952 210.697 32.532C209.953 32.112 209.365 31.518 208.933 30.75C208.513 29.97 208.303 29.07 208.303 28.05C208.303 27.042 208.519 26.154 208.951 25.386C209.395 24.606 209.995 24.012 210.751 23.604C211.507 23.184 212.353 22.974 213.289 22.974C214.225 22.974 215.071 23.184 215.827 23.604C216.583 24.012 217.177 24.6 217.609 25.368C218.053 26.136 218.275 27.03 218.275 28.05C218.275 29.07 218.047 29.97 217.591 30.75C217.147 31.518 216.541 32.112 215.773 32.532C215.005 32.952 214.153 33.162 213.217 33.162ZM213.217 31.722C213.805 31.722 214.357 31.584 214.873 31.308C215.389 31.032 215.803 30.618 216.115 30.066C216.439 29.514 216.601 28.842 216.601 28.05C216.601 27.258 216.445 26.586 216.133 26.034C215.821 25.482 215.413 25.074 214.909 24.81C214.405 24.534 213.859 24.396 213.271 24.396C212.671 24.396 212.119 24.534 211.615 24.81C211.123 25.074 210.727 25.482 210.427 26.034C210.127 26.586 209.977 27.258 209.977 28.05C209.977 28.854 210.121 29.532 210.409 30.084C210.709 30.636 211.105 31.05 211.597 31.326C212.089 31.59 212.629 31.722 213.217 31.722ZM225.235 22.956C226.435 22.956 227.407 23.322 228.151 24.054C228.895 24.774 229.267 25.818 229.267 27.186V33H227.647V27.42C227.647 26.436 227.401 25.686 226.909 25.17C226.417 24.642 225.745 24.378 224.893 24.378C224.029 24.378 223.339 24.648 222.823 25.188C222.319 25.728 222.067 26.514 222.067 27.546V33H220.429V23.136H222.067V24.54C222.391 24.036 222.829 23.646 223.381 23.37C223.945 23.094 224.563 22.956 225.235 22.956ZM249.467 20.544V33H247.829V23.712L243.689 33H242.537L238.379 23.694V33H236.741V20.544H238.505L243.113 30.84L247.721 20.544H249.467ZM261.245 27.69C261.245 28.002 261.227 28.332 261.191 28.68H253.307C253.367 29.652 253.697 30.414 254.297 30.966C254.909 31.506 255.647 31.776 256.511 31.776C257.219 31.776 257.807 31.614 258.275 31.29C258.755 30.954 259.091 30.51 259.283 29.958H261.047C260.783 30.906 260.255 31.68 259.463 32.28C258.671 32.868 257.687 33.162 256.511 33.162C255.575 33.162 254.735 32.952 253.991 32.532C253.259 32.112 252.683 31.518 252.263 30.75C251.843 29.97 251.633 29.07 251.633 28.05C251.633 27.03 251.837 26.136 252.245 25.368C252.653 24.6 253.223 24.012 253.955 23.604C254.699 23.184 255.551 22.974 256.511 22.974C257.447 22.974 258.275 23.178 258.995 23.586C259.715 23.994 260.267 24.558 260.651 25.278C261.047 25.986 261.245 26.79 261.245 27.69ZM259.553 27.348C259.553 26.724 259.415 26.19 259.139 25.746C258.863 25.29 258.485 24.948 258.005 24.72C257.537 24.48 257.015 24.36 256.439 24.36C255.611 24.36 254.903 24.624 254.315 25.152C253.739 25.68 253.409 26.412 253.325 27.348H259.553ZM265.405 24.486V30.3C265.405 30.78 265.507 31.122 265.711 31.326C265.915 31.518 266.269 31.614 266.773 31.614H267.979V33H266.503C265.591 33 264.907 32.79 264.451 32.37C263.995 31.95 263.767 31.26 263.767 30.3V24.486H262.489V23.136H263.767V20.652H265.405V23.136H267.979V24.486H265.405ZM271.602 24.738C271.89 24.174 272.298 23.736 272.826 23.424C273.366 23.112 274.02 22.956 274.788 22.956V24.648H274.356C272.52 24.648 271.602 25.644 271.602 27.636V33H269.964V23.136H271.602V24.738ZM280.981 33.162C280.057 33.162 279.217 32.952 278.461 32.532C277.717 32.112 277.129 31.518 276.697 30.75C276.277 29.97 276.067 29.07 276.067 28.05C276.067 27.042 276.283 26.154 276.715 25.386C277.159 24.606 277.759 24.012 278.515 23.604C279.271 23.184 280.117 22.974 281.053 22.974C281.989 22.974 282.835 23.184 283.591 23.604C284.347 24.012 284.941 24.6 285.373 25.368C285.817 26.136 286.039 27.03 286.039 28.05C286.039 29.07 285.811 29.97 285.355 30.75C284.911 31.518 284.305 32.112 283.537 32.532C282.769 32.952 281.917 33.162 280.981 33.162ZM280.981 31.722C281.569 31.722 282.121 31.584 282.637 31.308C283.153 31.032 283.567 30.618 283.879 30.066C284.203 29.514 284.365 28.842 284.365 28.05C284.365 27.258 284.209 26.586 283.897 26.034C283.585 25.482 283.177 25.074 282.673 24.81C282.169 24.534 281.623 24.396 281.035 24.396C280.435 24.396 279.883 24.534 279.379 24.81C278.887 25.074 278.491 25.482 278.191 26.034C277.891 26.586 277.741 27.258 277.741 28.05C277.741 28.854 277.885 29.532 278.173 30.084C278.473 30.636 278.869 31.05 279.361 31.326C279.853 31.59 280.393 31.722 280.981 31.722ZM289.831 24.954C290.155 24.39 290.635 23.922 291.271 23.55C291.919 23.166 292.669 22.974 293.521 22.974C294.397 22.974 295.189 23.184 295.897 23.604C296.617 24.024 297.181 24.618 297.589 25.386C297.997 26.142 298.201 27.024 298.201 28.032C298.201 29.028 297.997 29.916 297.589 30.696C297.181 31.476 296.617 32.082 295.897 32.514C295.189 32.946 294.397 33.162 293.521 33.162C292.681 33.162 291.937 32.976 291.289 32.604C290.653 32.22 290.167 31.746 289.831 31.182V37.68H288.193V23.136H289.831V24.954ZM296.527 28.032C296.527 27.288 296.377 26.64 296.077 26.088C295.777 25.536 295.369 25.116 294.853 24.828C294.349 24.54 293.791 24.396 293.179 24.396C292.579 24.396 292.021 24.546 291.505 24.846C291.001 25.134 290.593 25.56 290.281 26.124C289.981 26.676 289.831 27.318 289.831 28.05C289.831 28.794 289.981 29.448 290.281 30.012C290.593 30.564 291.001 30.99 291.505 31.29C292.021 31.578 292.579 31.722 293.179 31.722C293.791 31.722 294.349 31.578 294.853 31.29C295.369 30.99 295.777 30.564 296.077 30.012C296.377 29.448 296.527 28.788 296.527 28.032ZM304.659 33.162C303.735 33.162 302.895 32.952 302.139 32.532C301.395 32.112 300.807 31.518 300.375 30.75C299.955 29.97 299.745 29.07 299.745 28.05C299.745 27.042 299.961 26.154 300.393 25.386C300.837 24.606 301.437 24.012 302.193 23.604C302.949 23.184 303.795 22.974 304.731 22.974C305.667 22.974 306.513 23.184 307.269 23.604C308.025 24.012 308.619 24.6 309.051 25.368C309.495 26.136 309.717 27.03 309.717 28.05C309.717 29.07 309.489 29.97 309.033 30.75C308.589 31.518 307.983 32.112 307.215 32.532C306.447 32.952 305.595 33.162 304.659 33.162ZM304.659 31.722C305.247 31.722 305.799 31.584 306.315 31.308C306.831 31.032 307.245 30.618 307.557 30.066C307.881 29.514 308.043 28.842 308.043 28.05C308.043 27.258 307.887 26.586 307.575 26.034C307.263 25.482 306.855 25.074 306.351 24.81C305.847 24.534 305.301 24.396 304.713 24.396C304.113 24.396 303.561 24.534 303.057 24.81C302.565 25.074 302.169 25.482 301.869 26.034C301.569 26.586 301.419 27.258 301.419 28.05C301.419 28.854 301.563 29.532 301.851 30.084C302.151 30.636 302.547 31.05 303.039 31.326C303.531 31.59 304.071 31.722 304.659 31.722ZM313.508 19.68V33H311.87V19.68H313.508ZM317.146 21.534C316.834 21.534 316.57 21.426 316.354 21.21C316.138 20.994 316.03 20.73 316.03 20.418C316.03 20.106 316.138 19.842 316.354 19.626C316.57 19.41 316.834 19.302 317.146 19.302C317.446 19.302 317.698 19.41 317.902 19.626C318.118 19.842 318.226 20.106 318.226 20.418C318.226 20.73 318.118 20.994 317.902 21.21C317.698 21.426 317.446 21.534 317.146 21.534ZM317.938 23.136V33H316.3V23.136H317.938ZM322.728 24.486V30.3C322.728 30.78 322.83 31.122 323.034 31.326C323.238 31.518 323.592 31.614 324.096 31.614H325.302V33H323.826C322.914 33 322.23 32.79 321.774 32.37C321.318 31.95 321.09 31.26 321.09 30.3V24.486H319.812V23.136H321.09V20.652H322.728V23.136H325.302V24.486H322.728ZM326.674 28.032C326.674 27.024 326.878 26.142 327.286 25.386C327.694 24.618 328.252 24.024 328.96 23.604C329.68 23.184 330.478 22.974 331.354 22.974C332.218 22.974 332.968 23.16 333.604 23.532C334.24 23.904 334.714 24.372 335.026 24.936V23.136H336.682V33H335.026V31.164C334.702 31.74 334.216 32.22 333.568 32.604C332.932 32.976 332.188 33.162 331.336 33.162C330.46 33.162 329.668 32.946 328.96 32.514C328.252 32.082 327.694 31.476 327.286 30.696C326.878 29.916 326.674 29.028 326.674 28.032ZM335.026 28.05C335.026 27.306 334.876 26.658 334.576 26.106C334.276 25.554 333.868 25.134 333.352 24.846C332.848 24.546 332.29 24.396 331.678 24.396C331.066 24.396 330.508 24.54 330.004 24.828C329.5 25.116 329.098 25.536 328.798 26.088C328.498 26.64 328.348 27.288 328.348 28.032C328.348 28.788 328.498 29.448 328.798 30.012C329.098 30.564 329.5 30.99 330.004 31.29C330.508 31.578 331.066 31.722 331.678 31.722C332.29 31.722 332.848 31.578 333.352 31.29C333.868 30.99 334.276 30.564 334.576 30.012C334.876 29.448 335.026 28.794 335.026 28.05ZM344.256 22.956C345.456 22.956 346.428 23.322 347.172 24.054C347.916 24.774 348.288 25.818 348.288 27.186V33H346.668V27.42C346.668 26.436 346.422 25.686 345.93 25.17C345.438 24.642 344.766 24.378 343.914 24.378C343.05 24.378 342.36 24.648 341.844 25.188C341.34 25.728 341.088 26.514 341.088 27.546V33H339.45V23.136H341.088V24.54C341.412 24.036 341.85 23.646 342.402 23.37C342.966 23.094 343.584 22.956 344.256 22.956ZM196.116 42.454V55H194.478V49.312H188.088V55H186.45V42.454H188.088V47.962H194.478V42.454H196.116ZM203.215 55.162C202.291 55.162 201.451 54.952 200.695 54.532C199.951 54.112 199.363 53.518 198.931 52.75C198.511 51.97 198.301 51.07 198.301 50.05C198.301 49.042 198.517 48.154 198.949 47.386C199.393 46.606 199.993 46.012 200.749 45.604C201.505 45.184 202.351 44.974 203.287 44.974C204.223 44.974 205.069 45.184 205.825 45.604C206.581 46.012 207.175 46.6 207.607 47.368C208.051 48.136 208.273 49.03 208.273 50.05C208.273 51.07 208.045 51.97 207.589 52.75C207.145 53.518 206.539 54.112 205.771 54.532C205.003 54.952 204.151 55.162 203.215 55.162ZM203.215 53.722C203.803 53.722 204.355 53.584 204.871 53.308C205.387 53.032 205.801 52.618 206.113 52.066C206.437 51.514 206.599 50.842 206.599 50.05C206.599 49.258 206.443 48.586 206.131 48.034C205.819 47.482 205.411 47.074 204.907 46.81C204.403 46.534 203.857 46.396 203.269 46.396C202.669 46.396 202.117 46.534 201.613 46.81C201.121 47.074 200.725 47.482 200.425 48.034C200.125 48.586 199.975 49.258 199.975 50.05C199.975 50.854 200.119 51.532 200.407 52.084C200.707 52.636 201.103 53.05 201.595 53.326C202.087 53.59 202.627 53.722 203.215 53.722ZM219.175 45.136V55H217.537V53.542C217.225 54.046 216.787 54.442 216.223 54.73C215.671 55.006 215.059 55.144 214.387 55.144C213.619 55.144 212.929 54.988 212.317 54.676C211.705 54.352 211.219 53.872 210.859 53.236C210.511 52.6 210.337 51.826 210.337 50.914V45.136H211.957V50.698C211.957 51.67 212.203 52.42 212.695 52.948C213.187 53.464 213.859 53.722 214.711 53.722C215.587 53.722 216.277 53.452 216.781 52.912C217.285 52.372 217.537 51.586 217.537 50.554V45.136H219.175ZM225.433 55.162C224.677 55.162 223.999 55.036 223.399 54.784C222.799 54.52 222.325 54.16 221.977 53.704C221.629 53.236 221.437 52.702 221.401 52.102H223.093C223.141 52.594 223.369 52.996 223.777 53.308C224.197 53.62 224.743 53.776 225.415 53.776C226.039 53.776 226.531 53.638 226.891 53.362C227.251 53.086 227.431 52.738 227.431 52.318C227.431 51.886 227.239 51.568 226.855 51.364C226.471 51.148 225.877 50.938 225.073 50.734C224.341 50.542 223.741 50.35 223.273 50.158C222.817 49.954 222.421 49.66 222.085 49.276C221.761 48.88 221.599 48.364 221.599 47.728C221.599 47.224 221.749 46.762 222.049 46.342C222.349 45.922 222.775 45.592 223.327 45.352C223.879 45.1 224.509 44.974 225.217 44.974C226.309 44.974 227.191 45.25 227.863 45.802C228.535 46.354 228.895 47.11 228.943 48.07H227.305C227.269 47.554 227.059 47.14 226.675 46.828C226.303 46.516 225.799 46.36 225.163 46.36C224.575 46.36 224.107 46.486 223.759 46.738C223.411 46.99 223.237 47.32 223.237 47.728C223.237 48.052 223.339 48.322 223.543 48.538C223.759 48.742 224.023 48.91 224.335 49.042C224.659 49.162 225.103 49.3 225.667 49.456C226.375 49.648 226.951 49.84 227.395 50.032C227.839 50.212 228.217 50.488 228.529 50.86C228.853 51.232 229.021 51.718 229.033 52.318C229.033 52.858 228.883 53.344 228.583 53.776C228.283 54.208 227.857 54.55 227.305 54.802C226.765 55.042 226.141 55.162 225.433 55.162ZM232.191 43.534C231.879 43.534 231.615 43.426 231.399 43.21C231.183 42.994 231.075 42.73 231.075 42.418C231.075 42.106 231.183 41.842 231.399 41.626C231.615 41.41 231.879 41.302 232.191 41.302C232.491 41.302 232.743 41.41 232.947 41.626C233.163 41.842 233.271 42.106 233.271 42.418C233.271 42.73 233.163 42.994 232.947 43.21C232.743 43.426 232.491 43.534 232.191 43.534ZM232.983 45.136V55H231.345V45.136H232.983ZM240.581 44.956C241.781 44.956 242.753 45.322 243.497 46.054C244.241 46.774 244.613 47.818 244.613 49.186V55H242.993V49.42C242.993 48.436 242.747 47.686 242.255 47.17C241.763 46.642 241.091 46.378 240.239 46.378C239.375 46.378 238.685 46.648 238.169 47.188C237.665 47.728 237.413 48.514 237.413 49.546V55H235.775V45.136H237.413V46.54C237.737 46.036 238.175 45.646 238.727 45.37C239.291 45.094 239.909 44.956 240.581 44.956ZM251.356 44.974C252.208 44.974 252.952 45.16 253.588 45.532C254.236 45.904 254.716 46.372 255.028 46.936V45.136H256.684V55.216C256.684 56.116 256.492 56.914 256.108 57.61C255.724 58.318 255.172 58.87 254.452 59.266C253.744 59.662 252.916 59.86 251.968 59.86C250.672 59.86 249.592 59.554 248.728 58.942C247.864 58.33 247.354 57.496 247.198 56.44H248.818C248.998 57.04 249.37 57.52 249.934 57.88C250.498 58.252 251.176 58.438 251.968 58.438C252.868 58.438 253.6 58.156 254.164 57.592C254.74 57.028 255.028 56.236 255.028 55.216V53.146C254.704 53.722 254.224 54.202 253.588 54.586C252.952 54.97 252.208 55.162 251.356 55.162C250.48 55.162 249.682 54.946 248.962 54.514C248.254 54.082 247.696 53.476 247.288 52.696C246.88 51.916 246.676 51.028 246.676 50.032C246.676 49.024 246.88 48.142 247.288 47.386C247.696 46.618 248.254 46.024 248.962 45.604C249.682 45.184 250.48 44.974 251.356 44.974ZM255.028 50.05C255.028 49.306 254.878 48.658 254.578 48.106C254.278 47.554 253.87 47.134 253.354 46.846C252.85 46.546 252.292 46.396 251.68 46.396C251.068 46.396 250.51 46.54 250.006 46.828C249.502 47.116 249.1 47.536 248.8 48.088C248.5 48.64 248.35 49.288 248.35 50.032C248.35 50.788 248.5 51.448 248.8 52.012C249.1 52.564 249.502 52.99 250.006 53.29C250.51 53.578 251.068 53.722 251.68 53.722C252.292 53.722 252.85 53.578 253.354 53.29C253.87 52.99 254.278 52.564 254.578 52.012C254.878 51.448 255.028 50.794 255.028 50.05ZM271.667 52.21H266.195L265.187 55H263.459L267.995 42.526H269.885L274.403 55H272.675L271.667 52.21ZM271.199 50.878L268.931 44.542L266.663 50.878H271.199ZM285.128 45.136V55H283.49V53.542C283.178 54.046 282.74 54.442 282.176 54.73C281.624 55.006 281.012 55.144 280.34 55.144C279.572 55.144 278.882 54.988 278.27 54.676C277.658 54.352 277.172 53.872 276.812 53.236C276.464 52.6 276.29 51.826 276.29 50.914V45.136H277.91V50.698C277.91 51.67 278.156 52.42 278.648 52.948C279.14 53.464 279.812 53.722 280.664 53.722C281.54 53.722 282.23 53.452 282.734 52.912C283.238 52.372 283.49 51.586 283.49 50.554V45.136H285.128ZM289.892 46.486V52.3C289.892 52.78 289.994 53.122 290.198 53.326C290.402 53.518 290.756 53.614 291.26 53.614H292.466V55H290.99C290.078 55 289.394 54.79 288.938 54.37C288.482 53.95 288.254 53.26 288.254 52.3V46.486H286.976V45.136H288.254V42.652H289.892V45.136H292.466V46.486H289.892ZM299.346 44.956C300.09 44.956 300.762 45.118 301.362 45.442C301.962 45.754 302.43 46.228 302.766 46.864C303.114 47.5 303.288 48.274 303.288 49.186V55H301.668V49.42C301.668 48.436 301.422 47.686 300.93 47.17C300.438 46.642 299.766 46.378 298.914 46.378C298.05 46.378 297.36 46.648 296.844 47.188C296.34 47.728 296.088 48.514 296.088 49.546V55H294.45V41.68H296.088V46.54C296.412 46.036 296.856 45.646 297.42 45.37C297.996 45.094 298.638 44.956 299.346 44.956ZM310.266 55.162C309.342 55.162 308.502 54.952 307.746 54.532C307.002 54.112 306.414 53.518 305.982 52.75C305.562 51.97 305.352 51.07 305.352 50.05C305.352 49.042 305.568 48.154 306 47.386C306.444 46.606 307.044 46.012 307.8 45.604C308.556 45.184 309.402 44.974 310.338 44.974C311.274 44.974 312.12 45.184 312.876 45.604C313.632 46.012 314.226 46.6 314.658 47.368C315.102 48.136 315.324 49.03 315.324 50.05C315.324 51.07 315.096 51.97 314.64 52.75C314.196 53.518 313.59 54.112 312.822 54.532C312.054 54.952 311.202 55.162 310.266 55.162ZM310.266 53.722C310.854 53.722 311.406 53.584 311.922 53.308C312.438 53.032 312.852 52.618 313.164 52.066C313.488 51.514 313.65 50.842 313.65 50.05C313.65 49.258 313.494 48.586 313.182 48.034C312.87 47.482 312.462 47.074 311.958 46.81C311.454 46.534 310.908 46.396 310.32 46.396C309.72 46.396 309.168 46.534 308.664 46.81C308.172 47.074 307.776 47.482 307.476 48.034C307.176 48.586 307.026 49.258 307.026 50.05C307.026 50.854 307.17 51.532 307.458 52.084C307.758 52.636 308.154 53.05 308.646 53.326C309.138 53.59 309.678 53.722 310.266 53.722ZM319.116 46.738C319.404 46.174 319.812 45.736 320.34 45.424C320.88 45.112 321.534 44.956 322.302 44.956V46.648H321.87C320.034 46.648 319.116 47.644 319.116 49.636V55H317.478V45.136H319.116V46.738ZM325.039 43.534C324.727 43.534 324.463 43.426 324.247 43.21C324.031 42.994 323.923 42.73 323.923 42.418C323.923 42.106 324.031 41.842 324.247 41.626C324.463 41.41 324.727 41.302 325.039 41.302C325.339 41.302 325.591 41.41 325.795 41.626C326.011 41.842 326.119 42.106 326.119 42.418C326.119 42.73 326.011 42.994 325.795 43.21C325.591 43.426 325.339 43.534 325.039 43.534ZM325.831 45.136V55H324.193V45.136H325.831ZM330.62 46.486V52.3C330.62 52.78 330.722 53.122 330.926 53.326C331.13 53.518 331.484 53.614 331.988 53.614H333.194V55H331.718C330.806 55 330.122 54.79 329.666 54.37C329.21 53.95 328.982 53.26 328.982 52.3V46.486H327.704V45.136H328.982V42.652H330.62V45.136H333.194V46.486H330.62ZM343.675 45.136L337.735 59.644H336.043L337.987 54.892L334.009 45.136H335.827L338.923 53.128L341.983 45.136H343.675Z" fill="#2A362A"/>
</svg>
