<svg xmlns="http://www.w3.org/2000/svg" width="234" height="66" viewBox="0 0 234 66" fill="none">
  <path d="M175.565 30.6869H59.6949L117.63 0.564453L175.565 30.6869Z" fill="white"/>
  <path d="M49.6193 35.412L42.0625 39.5465H193.827L186.9 35.412H167.379H49.6193Z" fill="white"/>
  <path d="M175.565 30.6869H59.6949L117.63 0.564453L175.565 30.6869Z" stroke="white"/>
  <path d="M49.6193 35.412L42.0625 39.5465H193.827L186.9 35.412H167.379H49.6193Z" stroke="white"/>
  <path d="M71.0312 65.5351V48.9973L91.8123 63.1726L112.593 48.9973V65.5351M123.299 46.6348V56.085M123.299 65.5351V56.085M123.299 56.085H168.01V46.6348V65.5351M177.456 63.1726L205.164 47.816L233.501 63.1726" stroke="white" stroke-width="2"/>
  <path d="M0.5 64.3534L28.2081 48.4062L60.3243 63.1722" stroke="white" stroke-width="2"/>
</svg>