<svg xmlns="http://www.w3.org/2000/svg" width="180" height="60" viewBox="0 0 180 60" fill="none">
  <path d="M64.5117 1.70587H84.5023C92.349 1.70587 99.7218 5.30714 99.7218 15.2685C99.7218 25.2299 93.7604 29.7789 84.5023 29.7789H75.476V43.8154H64.5117V1.70587ZM75.476 21.2812H82.8488C86.2718 21.2812 88.7469 19.8701 88.7469 16.0372C88.7469 12.2043 86.2086 10.4984 82.8488 10.4984H75.476V21.2917V21.2812Z" fill="#002E6E"/>
  <path d="M99.0156 1.70587H120.481C127.917 1.70587 135.226 5.06495 135.226 13.5627C135.226 18.1011 133.046 22.4079 128.622 24.1137V24.2296C133.109 25.2931 134.405 30.3054 134.752 34.3173C134.868 36.0864 135.047 42.278 136.522 43.8154H125.673C124.736 42.4044 124.557 38.2766 124.43 37.0972C124.136 32.8536 123.43 28.4837 118.301 28.4837H109.99V43.8154H99.0156V1.70587ZM109.99 19.986H119.196C122.492 19.986 124.262 18.2169 124.262 15.0369C124.262 11.8568 121.787 10.4984 118.722 10.4984H109.99V19.9965V19.986Z" fill="#002E6E"/>
  <path d="M147.139 1.70587H158.282L174.028 43.8049H162.59L159.999 36.2548H145.317L142.662 43.8049H131.393L147.139 1.70587ZM147.855 28.1151H157.408L152.742 13.3731H152.626L147.844 28.1151H147.855Z" fill="#002E6E"/>
  <path d="M2.8125 51.8498H3.51818V56.8621H6.31981V57.4939H2.8125V51.8498Z" fill="#002E6E"/>
  <path d="M9.17309 51.7129C10.8583 51.7129 11.7114 53.1344 11.7114 54.6718C11.7114 56.2092 10.8583 57.6308 9.17309 57.6308C7.4879 57.6308 6.63477 56.2092 6.63477 54.6718C6.63477 53.1344 7.4879 51.7129 9.17309 51.7129ZM9.17309 56.999C10.4686 56.999 11.0057 55.8091 11.0057 54.6718C11.0057 53.5346 10.4686 52.3447 9.17309 52.3447C7.8776 52.3447 7.34044 53.5346 7.34044 54.6718C7.34044 55.8091 7.8776 56.999 9.17309 56.999Z" fill="#002E6E"/>
  <path d="M15.6505 53.503C15.5662 52.6922 15.0606 52.3447 14.3339 52.3447C13.7441 52.3447 13.1437 52.5764 13.1437 53.3135C13.1437 54.0084 13.9863 54.1137 14.8395 54.3138C15.6821 54.5244 16.5352 54.8403 16.5352 55.946C16.5352 57.1464 15.4293 57.6308 14.4603 57.6308C13.2701 57.6308 12.2695 57.0095 12.2695 55.6406H12.9331C12.9331 56.5883 13.6704 56.999 14.4814 56.999C15.1238 56.999 15.8295 56.7884 15.8295 55.967C15.8295 55.1457 14.9869 55.0614 14.1338 54.8614C13.2912 54.6613 12.4381 54.398 12.4381 53.3661C12.4381 52.2183 13.3965 51.7129 14.3655 51.7129C15.4503 51.7129 16.2719 52.2605 16.314 53.503H15.6505Z" fill="#002E6E"/>
  <path d="M20.8964 51.8498H21.6758L23.7507 57.4939H22.9713L22.392 55.788H20.1486L19.5588 57.4939H18.832L20.9069 51.8498H20.8964ZM20.3698 55.1667H22.1708L21.2861 52.5342H21.2756L20.3803 55.1667H20.3698Z" fill="#002E6E"/>
  <path d="M24.5625 51.8498H25.3103L28.1014 56.4303H28.1119V51.8498H28.7755V57.4939H28.0066L25.2366 52.966H25.226V57.4939H24.5625V51.8498Z" fill="#002E6E"/>
  <path d="M33.8934 56.7884C33.4827 57.378 32.8191 57.6202 32.1977 57.6202C30.6178 57.6202 29.6699 56.2408 29.6699 54.7771C29.6699 53.1344 30.5125 51.7129 32.1977 51.7129C33.3563 51.7129 34.2726 52.271 34.4727 53.5872H33.7671C33.6301 52.7343 32.9771 52.3447 32.1977 52.3447C30.9128 52.3447 30.3756 53.5346 30.3756 54.735C30.3756 55.9354 31.0181 56.9884 32.1977 56.9884C33.2931 56.9884 33.9461 56.1776 33.8934 55.1457H32.1977V54.5139H34.5254V57.4833H34.083L33.8934 56.7778V56.7884Z" fill="#002E6E"/>
  <path d="M35.5586 51.8498H39.2239V52.4816H36.2643V54.2717H39.0238V54.9035H36.2643V56.8515H39.245V57.4833H35.5586V51.8392V51.8498Z" fill="#002E6E"/>
  <path d="M40.0977 51.8498H40.8033V56.8621H43.6155V57.4939H40.1082V51.8498H40.0977Z" fill="#002E6E"/>
  <path d="M44.2266 51.8498H47.8919V52.4816H44.9322V54.2717H47.6917V54.9035H44.9322V56.8515H47.9129V57.4833H44.2266V51.8392V51.8498Z" fill="#002E6E"/>
  <path d="M51.8294 53.503C51.7451 52.6922 51.2396 52.3447 50.5128 52.3447C49.923 52.3447 49.3227 52.5764 49.3227 53.3135C49.3227 54.0084 50.1652 54.1137 51.0289 54.3138C51.8715 54.5244 52.7246 54.8403 52.7246 55.946C52.7246 57.1464 51.6187 57.6308 50.6497 57.6308C49.4596 57.6308 48.459 57.0095 48.459 55.6406H49.1225C49.1225 56.5883 49.8598 56.999 50.6708 56.999C51.3133 56.999 52.019 56.7884 52.019 55.967C52.019 55.1457 51.1764 55.0614 50.3232 54.8614C49.4806 54.6613 48.617 54.398 48.617 53.3661C48.617 52.2183 49.5754 51.7129 50.5444 51.7129C51.6293 51.7129 52.4508 52.2605 52.4929 53.503H51.8294Z" fill="#002E6E"/>
  <path d="M55.6426 51.8498H57.9703C59.0235 51.8498 59.5923 52.471 59.5923 53.5135C59.5923 54.556 59.0235 55.1878 57.9703 55.1772H56.3483V57.4833H55.6426V51.8392V51.8498ZM56.3483 54.556H57.728C58.5179 54.556 58.8866 54.1874 58.8866 53.524C58.8866 52.8606 58.5285 52.4921 57.728 52.4921H56.3483V54.5665V54.556Z" fill="#002E6E"/>
  <path d="M62.6887 51.7129C64.3739 51.7129 65.227 53.1344 65.227 54.6718C65.227 56.2092 64.3739 57.6308 62.6887 57.6308C61.0035 57.6308 60.1504 56.2092 60.1504 54.6718C60.1504 53.1344 61.0035 51.7129 62.6887 51.7129ZM62.6887 56.999C63.9842 56.999 64.5214 55.8091 64.5214 54.6718C64.5214 53.5346 63.9737 52.3447 62.6887 52.3447C61.4038 52.3447 60.8561 53.5346 60.8561 54.6718C60.8561 55.8091 61.3932 56.999 62.6887 56.999Z" fill="#002E6E"/>
  <path d="M66.0918 51.8498H66.7975V56.8621H69.5991V57.4939H66.0918V51.8498Z" fill="#002E6E"/>
  <path d="M70.252 51.8498H70.9576V57.4939H70.252V51.8498Z" fill="#002E6E"/>
  <path d="M75.8766 53.5556C75.7291 52.7554 75.1288 52.3552 74.3915 52.3552C73.1276 52.3552 72.601 53.4609 72.601 54.6402C72.601 55.9249 73.1381 57.0095 74.402 57.0095C75.3289 57.0095 75.866 56.3145 75.9292 55.3773H76.6349C76.498 56.7884 75.6765 57.6413 74.3388 57.6413C72.6958 57.6413 71.8848 56.3461 71.8848 54.7034C71.8848 53.0607 72.759 51.7339 74.3915 51.7339C75.4974 51.7339 76.4137 52.3657 76.5717 53.5662H75.866L75.8766 53.5556Z" fill="#002E6E"/>
  <path d="M77.5078 51.8498H81.1731V52.4816H78.2135V54.2717H80.973V54.9035H78.2135V56.8515H81.1942V57.4833H77.5078V51.8392V51.8498Z" fill="#002E6E"/>
  <path d="M84.1121 51.8498H86.6083C87.6089 51.8498 88.2198 52.4289 88.2198 53.324C88.2198 54.0084 87.9354 54.5665 87.3034 54.7561C87.9143 54.893 88.0512 55.3773 88.0934 55.9354C88.1355 56.4935 88.1039 57.1043 88.3988 57.4939H87.6089C87.4088 57.2622 87.5246 56.6515 87.4193 56.1039C87.3456 55.5458 87.2192 55.0825 86.5346 55.0825H84.8072V57.4939H84.1016V51.8498H84.1121ZM86.2818 54.4507C86.9453 54.4507 87.5036 54.2717 87.5036 53.4504C87.5036 52.8923 87.2192 52.4816 86.5662 52.4816H84.8178V54.4507H86.2923H86.2818Z" fill="#002E6E"/>
  <path d="M89.1992 51.8498H92.854V52.4816H89.9049V54.2717H92.6644V54.9035H89.9049V56.8515H92.8856V57.4833H89.1992V51.8392V51.8498Z" fill="#002E6E"/>
  <path d="M93.7285 51.8498H94.4342V56.8621H97.2464V57.4939H93.7285V51.8498Z" fill="#002E6E"/>
  <path d="M97.8887 51.8498H98.5943V57.4939H97.8887V51.8498Z" fill="#002E6E"/>
  <path d="M99.7852 51.8498H103.45V52.4816H100.491V54.2717H103.25V54.9035H100.491V56.8515H103.472V57.4833H99.7852V51.8392V51.8498Z" fill="#002E6E"/>
  <path d="M104.324 51.8498H107.81V52.4816H105.03V54.2717H107.463V54.9035H105.03V57.4939H104.324V51.8498Z" fill="#002E6E"/>
  <path d="M112.086 51.8498H112.865L114.94 57.4939H114.161L113.581 55.788H111.338L110.748 57.4939H110.021L112.096 51.8498H112.086ZM111.559 55.1667H113.36L112.476 52.5342H112.454L111.559 55.1667Z" fill="#002E6E"/>
  <path d="M118.732 53.503C118.647 52.6922 118.142 52.3447 117.415 52.3447C116.825 52.3447 116.225 52.5764 116.225 53.3135C116.225 54.0084 117.068 54.1137 117.931 54.3138C118.774 54.5244 119.627 54.8403 119.627 55.946C119.627 57.1464 118.521 57.6308 117.552 57.6308C116.362 57.6308 115.361 57.0095 115.361 55.6406H116.025C116.025 56.5883 116.773 56.999 117.563 56.999C118.205 56.999 118.911 56.7884 118.911 55.967C118.911 55.1457 118.068 55.0614 117.215 54.8614C116.372 54.6613 115.509 54.398 115.509 53.3661C115.509 52.2183 116.467 51.7129 117.436 51.7129C118.521 51.7129 119.343 52.2605 119.385 53.503H118.721H118.732Z" fill="#002E6E"/>
  <path d="M123.546 53.503C123.462 52.6922 122.956 52.3447 122.23 52.3447C121.64 52.3447 121.039 52.5764 121.039 53.3135C121.039 54.0084 121.882 54.1137 122.746 54.3138C123.588 54.5244 124.441 54.8403 124.441 55.946C124.441 57.1464 123.336 57.6308 122.367 57.6308C121.176 57.6308 120.176 57.0095 120.176 55.6406H120.839C120.839 56.5883 121.587 56.999 122.377 56.999C123.02 56.999 123.725 56.7884 123.725 55.967C123.725 55.1457 122.883 55.0614 122.029 54.8614C121.187 54.6613 120.323 54.398 120.323 53.3661C120.323 52.2183 121.282 51.7129 122.251 51.7129C123.336 51.7129 124.157 52.2605 124.199 53.503H123.536H123.546Z" fill="#002E6E"/>
  <path d="M127.527 51.7129C129.212 51.7129 130.065 53.1344 130.065 54.6718C130.065 56.2092 129.212 57.6308 127.527 57.6308C125.841 57.6308 124.988 56.2092 124.988 54.6718C124.988 53.1344 125.841 51.7129 127.527 51.7129ZM127.527 56.999C128.822 56.999 129.359 55.8091 129.359 54.6718C129.359 53.5346 128.822 52.3447 127.527 52.3447C126.231 52.3447 125.694 53.5346 125.694 54.6718C125.694 55.8091 126.242 56.999 127.527 56.999Z" fill="#002E6E"/>
  <path d="M134.659 53.5556C134.511 52.7554 133.911 52.3552 133.174 52.3552C131.91 52.3552 131.372 53.4609 131.372 54.6402C131.372 55.9249 131.91 57.0095 133.174 57.0095C134.1 57.0095 134.638 56.3145 134.701 55.3773H135.406C135.269 56.7884 134.448 57.6413 133.11 57.6413C131.467 57.6413 130.656 56.3461 130.656 54.7034C130.656 53.0607 131.53 51.7339 133.163 51.7339C134.269 51.7339 135.185 52.3657 135.343 53.5662H134.638L134.659 53.5556Z" fill="#002E6E"/>
  <path d="M136.322 51.8498H137.028V57.4939H136.322V51.8498Z" fill="#002E6E"/>
  <path d="M139.66 51.8498H140.439L142.514 57.4939H141.735L141.156 55.788H138.912L138.322 57.4939H137.596L139.671 51.8498H139.66ZM139.133 55.1667H140.934L140.05 52.5342H140.039L139.144 55.1667H139.133Z" fill="#002E6E"/>
  <path d="M143.547 52.4816H141.777V51.8498H146.022V52.4816H144.252V57.4939H143.547V52.4816Z" fill="#002E6E"/>
  <path d="M146.633 51.8498H147.338V57.4939H146.633V51.8498Z" fill="#002E6E"/>
  <path d="M150.773 51.7129C152.458 51.7129 153.311 53.1344 153.311 54.6718C153.311 56.2092 152.458 57.6308 150.773 57.6308C149.087 57.6308 148.234 56.2092 148.234 54.6718C148.234 53.1344 149.087 51.7129 150.773 51.7129ZM150.773 56.999C152.068 56.999 152.605 55.8091 152.605 54.6718C152.605 53.5346 152.058 52.3447 150.773 52.3447C149.488 52.3447 148.94 53.5346 148.94 54.6718C148.94 55.8091 149.477 56.999 150.773 56.999Z" fill="#002E6E"/>
  <path d="M154.164 51.8498H154.912L157.703 56.4303H157.714V51.8498H158.377V57.4939H157.608L154.838 52.966H154.828V57.4939H154.164V51.8498Z" fill="#002E6E"/>
  <path d="M159.577 56.6199H160.398V57.4202C160.398 58.0098 160.156 58.4837 159.577 58.6627V58.2626C159.914 58.1467 160.019 57.7466 160.009 57.4939H159.566V56.6199H159.577Z" fill="#002E6E"/>
  <path d="M163.254 51.8498H163.96V57.4939H163.254V51.8498Z" fill="#002E6E"/>
  <path d="M165.139 51.8498H165.886L168.678 56.4303H168.699V51.8498H169.362V57.4939H168.593L165.823 52.966H165.813V57.4939H165.149V51.8498H165.139Z" fill="#002E6E"/>
  <path d="M174.229 53.5556C174.081 52.7554 173.481 52.3552 172.744 52.3552C171.48 52.3552 170.943 53.4609 170.943 54.6402C170.943 55.9249 171.48 57.0095 172.744 57.0095C173.671 57.0095 174.208 56.3145 174.271 55.3773H174.977C174.84 56.7884 174.018 57.6413 172.681 57.6413C171.038 57.6413 170.227 56.3461 170.227 54.7034C170.227 53.0607 171.101 51.7339 172.733 51.7339C173.839 51.7339 174.756 52.3657 174.914 53.5662H174.208L174.229 53.5556Z" fill="#002E6E"/>
  <path d="M175.902 56.6199H176.724V57.4939H175.902V56.6199Z" fill="#002E6E"/>
  <path d="M2.75977 1.70587H13.7346V34.37H33.3777V43.8049H2.75977V1.70587Z" fill="#808080"/>
  <path d="M41.9824 1.70587H53.1257L68.8718 43.8049H57.4335L54.8425 36.2548H40.1603L37.5061 43.8049H26.2363L41.9824 1.70587ZM42.688 28.1151H52.241L47.5856 13.3731H47.4698L42.688 28.1151Z" fill="#808080"/>
</svg>