<svg xmlns="http://www.w3.org/2000/svg" width="14" height="14" viewBox="0 0 14 14" fill="none">
  <path d="M12 0C13.1031 0 14 0.896875 14 2V12C14 13.1031 13.1031 14 12 14H2C0.896875 14 0 13.1031 0 12V2C0 0.896875 0.896875 0 2 0H12ZM8.5 8.25C8.5 8.66562 8.83438 9 9.25 9C9.66562 9 10 8.66562 10 8.25V4.75C10 4.33437 9.66562 4 9.25 4H5.75C5.33437 4 5 4.33437 5 4.75C5 5.16563 5.33437 5.5 5.75 5.5H7.44063L4.22188 8.71875C3.92813 9.0125 3.92813 9.4875 4.22188 9.77812C4.51562 10.0687 4.99062 10.0719 5.28125 9.77812L8.5 6.55937V8.25Z" fill="#1B5F3A"/>
</svg>