<svg xmlns="http://www.w3.org/2000/svg" width="30" height="32" viewBox="0 0 30 32" fill="none">
<path d="M14.9938 3.0875L3.56253 7.9375C3.19378 8.09375 2.99378 8.425 3.00003 8.7375C3.03128 14.45 5.40003 24.3187 14.65 28.7437C14.875 28.85 15.1375 28.85 15.3563 28.7437C24.6063 24.3187 26.975 14.45 27 8.7375C27 8.425 26.8063 8.1 26.4375 7.9375L14.9938 3.0875ZM15.8313 0.18125L27.6063 5.175C28.9813 5.75625 30.0063 7.1125 30 8.75C29.9688 14.95 27.4188 26.2938 16.65 31.45C15.6063 31.95 14.3938 31.95 13.35 31.45C2.57503 26.2938 0.0250284 14.95 2.84281e-05 8.75C-0.00622157 7.1125 1.01878 5.75625 2.39378 5.175L14.1625 0.18125C14.425 0.0625 14.7063 0 14.9938 0C15.2813 0 15.5688 0.0625 15.8313 0.18125Z" fill="white"/>
</svg>