<svg xmlns="http://www.w3.org/2000/svg" width="17" height="17" viewBox="0 0 17 17" fill="none">
  <path d="M16.7006 15.1635L13.2345 11.7126C14.1997 10.451 14.7169 8.90619 14.705 7.3204C14.711 6.35742 14.5249 5.40284 14.1575 4.51201C13.7902 3.62118 13.2488 2.81183 12.5649 2.13088C11.8809 1.44994 11.068 0.910963 10.1733 0.5452C9.27855 0.179437 8.31977 -0.00583078 7.35256 0.000139847C6.38535 -0.00583078 5.42658 0.179437 4.53183 0.5452C3.63709 0.910963 2.82418 1.44994 2.14025 2.13088C1.45631 2.81183 0.914966 3.62118 0.547596 4.51201C0.180226 5.40284 -0.00585639 6.35742 0.000140461 7.3204C-0.00585639 8.28338 0.180226 9.23796 0.547596 10.1288C0.914966 11.0196 1.45631 11.829 2.14025 12.5099C2.82418 13.1909 3.63709 13.7298 4.53183 14.0956C5.42658 14.4614 6.38535 14.6466 7.35256 14.6407C8.94531 14.6525 10.4969 14.1375 11.764 13.1766L15.2302 16.6276L16.7006 15.1635ZM2.10083 7.3204C2.09395 6.63185 2.2251 5.94884 2.48658 5.31137C2.74807 4.67389 3.13465 4.09475 3.6237 3.60785C4.11274 3.12094 4.69443 2.73605 5.3347 2.47571C5.97498 2.21536 6.66098 2.08479 7.35256 2.09164C8.04414 2.08479 8.73015 2.21536 9.37042 2.47571C10.0107 2.73605 10.5924 3.12094 11.0814 3.60785C11.5705 4.09475 11.9571 4.67389 12.2185 5.31137C12.48 5.94884 12.6112 6.63185 12.6043 7.3204C12.6112 8.00896 12.48 8.69196 12.2185 9.32944C11.9571 9.96691 11.5705 10.5461 11.0814 11.033C10.5924 11.5199 10.0107 11.9048 9.37042 12.1651C8.73015 12.4254 8.04414 12.556 7.35256 12.5492C6.66098 12.556 5.97498 12.4254 5.3347 12.1651C4.69443 11.9048 4.11274 11.5199 3.6237 11.033C3.13465 10.5461 2.74807 9.96691 2.48658 9.32944C2.2251 8.69196 2.09395 8.00896 2.10083 7.3204Z" fill="#2F463A"/>
</svg>